<?xml version="1.0" encoding="utf-8"?>
<!-- Generator: Adobe Illustrator 24.0.0, SVG Export Plug-In . SVG Version: 6.00 Build 0)  -->
<svg version="1.1" id="Layer_1" xmlns="http://www.w3.org/2000/svg" xmlns:xlink="http://www.w3.org/1999/xlink" x="0px" y="0px"
	 viewBox="0 0 500 500" style="enable-background:new 0 0 500 500;" xml:space="preserve">
<style type="text/css">
	.st0{fill:#FFFFFF;}
</style>
<g>
	<path class="st0" d="M31.26,178.16h9.03v36.39c0,2.82-0.36,5.21-1.09,7.16c-0.73,1.95-1.79,3.53-3.17,4.72
		c-1.39,1.2-3.07,2.06-5.04,2.57c-1.97,0.52-4.18,0.78-6.63,0.78c-2.12,0-4.27-0.38-6.45-1.13c-2.19-0.75-4.1-1.86-5.75-3.31
		l4.16-6.91c1.5,1.13,2.83,1.93,3.98,2.4c1.15,0.47,2.55,0.71,4.2,0.71c2.21,0,3.89-0.66,5.04-1.97c1.15-1.32,1.73-3.71,1.73-7.19
		V178.16z"/>
	<path class="st0" d="M82.45,178.16v7.47H58.69v13.68h22.28v7.33H58.69v14.88h24.26v7.47H49.73v-50.84H82.45z"/>
	<path class="st0" d="M110.03,177.39c2.87,0,5.61,0.41,8.22,1.23c2.61,0.82,4.9,2.12,6.88,3.88c1.97,1.76,3.54,4.03,4.69,6.81
		c1.15,2.77,1.73,6.13,1.73,10.08v8.39c0,4-0.58,7.39-1.73,10.19c-1.15,2.8-2.7,5.07-4.65,6.81c-1.95,1.74-4.23,3.01-6.84,3.81
		c-2.61,0.8-5.37,1.2-8.29,1.2c-2.92,0-5.68-0.4-8.29-1.2c-2.61-0.8-4.89-2.07-6.84-3.81c-1.95-1.74-3.5-4.01-4.65-6.81
		c-1.15-2.8-1.73-6.19-1.73-10.19v-8.39c0-3.95,0.58-7.31,1.73-10.08c1.15-2.77,2.72-5.04,4.69-6.81c1.97-1.76,4.27-3.06,6.88-3.88
		C104.43,177.8,107.17,177.39,110.03,177.39z M110.03,221.53c1.74,0,3.36-0.22,4.87-0.67c1.5-0.45,2.82-1.23,3.95-2.36
		c1.13-1.13,2.01-2.66,2.64-4.58c0.63-1.93,0.95-4.35,0.95-7.26v-6.13c0-2.91-0.32-5.34-0.95-7.26c-0.63-1.93-1.52-3.46-2.64-4.58
		c-1.13-1.13-2.44-1.91-3.95-2.36c-1.5-0.45-3.13-0.67-4.87-0.67c-1.69,0-3.29,0.22-4.8,0.67c-1.5,0.45-2.82,1.23-3.95,2.36
		c-1.13,1.13-2.02,2.66-2.68,4.58c-0.66,1.93-0.99,4.35-0.99,7.26v6.13c0,2.92,0.33,5.34,0.99,7.26c0.66,1.93,1.55,3.46,2.68,4.58
		c1.13,1.13,2.44,1.92,3.95,2.36C106.74,221.31,108.34,221.53,110.03,221.53z"/>
	<path class="st0" d="M139.55,178.16h10.37l17.35,30.82c0.52,0.94,1.09,2.1,1.73,3.49c0.63,1.39,1.14,2.9,1.52,4.55v-38.86h8.46
		v50.84h-10.37l-17.42-30.89c-0.66-1.13-1.27-2.35-1.83-3.67c-0.56-1.32-1.01-2.7-1.34-4.16v38.71h-8.46V178.16z"/>
	<path class="st0" d="M209.58,177.39c3.01,0,5.99,0.42,8.96,1.27c2.96,0.85,5.76,2.33,8.39,4.44l-4.87,6.91
		c-1.88-1.64-3.9-2.8-6.07-3.46c-2.16-0.66-4.3-0.99-6.42-0.99c-1.97,0-3.78,0.22-5.43,0.67c-1.65,0.45-3.07,1.25-4.27,2.4
		c-1.2,1.15-2.14,2.75-2.82,4.8c-0.68,2.04-1.02,4.69-1.02,7.93v5.22c0,2.77,0.35,5.11,1.06,7.02c0.7,1.9,1.68,3.46,2.93,4.65
		c1.25,1.2,2.73,2.06,4.44,2.57c1.72,0.52,3.61,0.78,5.68,0.78c1.64,0,3.13-0.12,4.44-0.35c1.32-0.23,2.61-0.61,3.88-1.13v-12.2
		h-10.65v-7.55h19.6v24.75c-1.13,0.75-2.4,1.42-3.81,2.01s-2.89,1.07-4.44,1.45c-1.55,0.38-3.14,0.67-4.76,0.88
		c-1.62,0.21-3.18,0.32-4.69,0.32c-3.24,0-6.24-0.4-8.99-1.2c-2.75-0.8-5.15-2.07-7.19-3.81c-2.04-1.74-3.64-3.95-4.8-6.63
		c-1.15-2.68-1.73-5.92-1.73-9.73v-9.1c0-3.81,0.56-7.09,1.69-9.84c1.13-2.75,2.69-5.03,4.69-6.84c2-1.81,4.38-3.14,7.16-3.98
		C203.33,177.81,206.34,177.39,209.58,177.39z"/>
	<path class="st0" d="M284.97,206.23h-21.09v22.78h-9.03v-50.84h9.03v20.59h21.09v-20.59H294v50.84h-9.03V206.23z"/>
	<path class="st0" d="M336.25,178.16v7.47h-23.76v13.68h22.28v7.33h-22.28v14.88h24.26v7.47h-33.21v-50.84H336.25z"/>
	<path class="st0" d="M388.31,229.01h-9.8l-4.94-13.96h-17.14l-5.01,13.96h-9.24l18.9-50.84h8.11L388.31,229.01z M359.04,207.5
		h11.92l-3.46-10.37c-0.61-1.69-1.09-3.11-1.45-4.27c-0.35-1.15-0.72-2.34-1.09-3.56c-0.19,0.7-0.36,1.34-0.53,1.9
		c-0.16,0.56-0.34,1.14-0.53,1.73c-0.19,0.59-0.39,1.21-0.6,1.87c-0.21,0.66-0.48,1.43-0.81,2.33L359.04,207.5z"/>
	<path class="st0" d="M429.35,221.67c3.24,0,5.59-0.57,7.05-1.73c1.46-1.15,2.19-2.6,2.19-4.34v-0.78c0-2.07-0.76-3.61-2.29-4.62
		c-1.53-1.01-3.75-1.84-6.66-2.5c-2.12-0.47-4.24-0.96-6.38-1.48c-2.14-0.52-4.07-1.29-5.78-2.33c-1.72-1.03-3.11-2.43-4.2-4.2
		c-1.08-1.76-1.62-4.13-1.62-7.09v-0.92c0-1.55,0.31-3.16,0.92-4.83c0.61-1.67,1.62-3.21,3.03-4.62c1.41-1.41,3.28-2.57,5.61-3.49
		c2.33-0.92,5.21-1.38,8.64-1.38c2.82,0,5.52,0.29,8.11,0.88c2.58,0.59,5.17,1.7,7.76,3.35l-4.23,6.98c-2.07-1.32-4-2.17-5.78-2.57
		c-1.79-0.4-3.69-0.6-5.71-0.6c-1.6,0-2.99,0.19-4.16,0.56c-1.18,0.38-2.15,0.87-2.93,1.48c-0.78,0.61-1.35,1.27-1.73,1.97
		c-0.38,0.71-0.56,1.41-0.56,2.12v0.85c0,1.22,0.29,2.21,0.88,2.96c0.59,0.75,1.38,1.38,2.36,1.87c0.99,0.49,2.15,0.89,3.49,1.2
		c1.34,0.31,2.76,0.62,4.27,0.95c3.01,0.66,5.54,1.47,7.58,2.43c2.05,0.96,3.69,2.06,4.94,3.28c1.24,1.22,2.14,2.57,2.68,4.05
		c0.54,1.48,0.81,3.09,0.81,4.83v0.92c0,2.82-0.51,5.18-1.52,7.09c-1.01,1.9-2.39,3.43-4.13,4.58c-1.74,1.15-3.74,1.97-5.99,2.47
		c-2.26,0.49-4.61,0.74-7.05,0.74c-1.83,0-3.63-0.15-5.39-0.46c-1.76-0.31-3.42-0.72-4.97-1.23c-1.55-0.52-3-1.14-4.34-1.87
		c-1.34-0.73-2.5-1.49-3.49-2.29l4.37-7.19c1.55,1.32,3.55,2.47,5.99,3.46C423.54,221.18,426.29,221.67,429.35,221.67z"/>
	<path class="st0" d="M474.25,221.6c1.83,0,3.43-0.22,4.8-0.67c1.36-0.45,2.48-1.2,3.35-2.26c0.87-1.06,1.52-2.44,1.94-4.16
		c0.42-1.72,0.63-3.82,0.63-6.31v-30.04H494v29.9c0,4.18-0.44,7.66-1.3,10.44c-0.87,2.77-2.14,5-3.81,6.66
		c-1.67,1.67-3.73,2.86-6.17,3.56c-2.45,0.7-5.27,1.06-8.46,1.06c-3.2,0-6.02-0.35-8.46-1.06c-2.44-0.71-4.5-1.89-6.17-3.56
		c-1.67-1.67-2.94-3.89-3.81-6.66c-0.87-2.77-1.3-6.25-1.3-10.44v-29.9h9.03v30.04c0,2.49,0.21,4.6,0.63,6.31
		c0.42,1.72,1.07,3.1,1.94,4.16c0.87,1.06,1.99,1.81,3.35,2.26C470.82,221.38,472.42,221.6,474.25,221.6z"/>
	<path class="st0" d="M17.01,262.79h19.18c3.06,0,5.68,0.36,7.86,1.09c2.19,0.73,3.98,1.74,5.39,3.03c1.41,1.29,2.46,2.83,3.14,4.62
		c0.68,1.79,1.02,3.71,1.02,5.78v1.48c0,2.07-0.35,4.03-1.06,5.89c-0.7,1.86-1.79,3.48-3.24,4.87c-1.46,1.39-3.27,2.49-5.43,3.32
		c-2.16,0.82-4.73,1.23-7.69,1.23H26.04v19.53h-9.03V262.79z M26.04,270.33v16.15h8.96c2.96,0,5.29-0.56,6.98-1.69
		c1.69-1.13,2.54-3.17,2.54-6.14v-1.27c0-1.41-0.21-2.56-0.63-3.46c-0.42-0.89-1.02-1.61-1.8-2.15c-0.78-0.54-1.7-0.92-2.79-1.13
		c-1.08-0.21-2.26-0.32-3.53-0.32H26.04z"/>
	<path class="st0" d="M81.04,262.01c2.87,0,5.61,0.41,8.22,1.23c2.61,0.82,4.9,2.12,6.88,3.88c1.97,1.76,3.54,4.03,4.69,6.81
		c1.15,2.77,1.73,6.13,1.73,10.08v8.39c0,4-0.58,7.39-1.73,10.19c-1.15,2.8-2.7,5.07-4.65,6.81c-1.95,1.74-4.23,3.01-6.84,3.81
		c-2.61,0.8-5.37,1.2-8.29,1.2c-2.92,0-5.68-0.4-8.29-1.2c-2.61-0.8-4.89-2.07-6.84-3.81c-1.95-1.74-3.5-4.01-4.65-6.81
		c-1.15-2.8-1.73-6.19-1.73-10.19v-8.39c0-3.95,0.58-7.31,1.73-10.08c1.15-2.77,2.72-5.04,4.69-6.81c1.97-1.76,4.27-3.06,6.88-3.88
		C75.44,262.42,78.18,262.01,81.04,262.01z M81.04,306.16c1.74,0,3.36-0.22,4.87-0.67c1.5-0.45,2.82-1.23,3.95-2.36
		s2.01-2.66,2.64-4.58c0.63-1.93,0.95-4.35,0.95-7.26v-6.13c0-2.91-0.32-5.34-0.95-7.26c-0.63-1.93-1.52-3.46-2.64-4.58
		c-1.13-1.13-2.44-1.91-3.95-2.36c-1.5-0.45-3.13-0.67-4.87-0.67c-1.69,0-3.29,0.22-4.8,0.67c-1.5,0.45-2.82,1.23-3.95,2.36
		c-1.13,1.13-2.02,2.66-2.68,4.58c-0.66,1.93-0.99,4.35-0.99,7.26v6.13c0,2.92,0.33,5.34,0.99,7.26c0.66,1.93,1.55,3.46,2.68,4.58
		c1.13,1.13,2.44,1.92,3.95,2.36C77.75,305.93,79.35,306.16,81.04,306.16z"/>
	<path class="st0" d="M129.95,293.25h-10.37v20.38h-9.03v-50.84h19.25c2.63,0,4.97,0.35,7.02,1.06c2.04,0.71,3.76,1.67,5.15,2.89
		c1.39,1.22,2.44,2.69,3.17,4.41c0.73,1.72,1.09,3.59,1.09,5.61v2.61c0,2.68-0.66,5.09-1.97,7.23c-1.32,2.14-3.29,3.8-5.92,4.97
		c1.69,3.71,3.35,7.39,4.97,11.04c1.62,3.64,3.28,7.32,4.97,11.04h-9.8L129.95,293.25z M119.59,270.33v15.37h8.32
		c3.48,0,5.91-0.61,7.3-1.83c1.39-1.22,2.08-2.8,2.08-4.72v-2.12c0-1.97-0.66-3.58-1.97-4.83c-1.32-1.24-3.53-1.87-6.63-1.87H119.59
		z"/>
	<path class="st0" d="M190.34,262.79v7.62h-14.88v43.23h-9.03V270.4h-14.95v-7.62H190.34z"/>
	<path class="st0" d="M196.33,313.63v-50.84h32.72v7.62h-23.69v14.53h22.21v7.62h-22.21v21.09H196.33z"/>
	<path class="st0" d="M255.76,262.01c2.87,0,5.61,0.41,8.22,1.23c2.61,0.82,4.9,2.12,6.87,3.88c1.98,1.76,3.54,4.03,4.69,6.81
		c1.15,2.77,1.73,6.13,1.73,10.08v8.39c0,4-0.58,7.39-1.73,10.19c-1.15,2.8-2.7,5.07-4.65,6.81c-1.95,1.74-4.23,3.01-6.84,3.81
		c-2.61,0.8-5.37,1.2-8.29,1.2c-2.91,0-5.68-0.4-8.29-1.2c-2.61-0.8-4.89-2.07-6.84-3.81c-1.95-1.74-3.5-4.01-4.65-6.81
		c-1.15-2.8-1.73-6.19-1.73-10.19v-8.39c0-3.95,0.58-7.31,1.73-10.08c1.15-2.77,2.71-5.04,4.69-6.81c1.97-1.76,4.27-3.06,6.87-3.88
		C250.15,262.42,252.89,262.01,255.76,262.01z M255.76,306.16c1.74,0,3.36-0.22,4.87-0.67c1.5-0.45,2.82-1.23,3.95-2.36
		c1.13-1.13,2.01-2.66,2.64-4.58c0.63-1.93,0.95-4.35,0.95-7.26v-6.13c0-2.91-0.32-5.34-0.95-7.26c-0.63-1.93-1.52-3.46-2.64-4.58
		c-1.13-1.13-2.45-1.91-3.95-2.36c-1.51-0.45-3.13-0.67-4.87-0.67c-1.69,0-3.29,0.22-4.8,0.67c-1.5,0.45-2.82,1.23-3.95,2.36
		c-1.13,1.13-2.02,2.66-2.68,4.58c-0.66,1.93-0.99,4.35-0.99,7.26v6.13c0,2.92,0.33,5.34,0.99,7.26c0.66,1.93,1.55,3.46,2.68,4.58
		c1.13,1.13,2.44,1.92,3.95,2.36C252.47,305.93,254.07,306.16,255.76,306.16z"/>
	<path class="st0" d="M294.3,262.79v43.23h23.2v7.62h-32.23v-50.84H294.3z"/>
	<path class="st0" d="M323.82,262.79h9.03v50.84h-9.03V262.79z"/>
	<path class="st0" d="M362.51,262.01c2.87,0,5.61,0.41,8.22,1.23c2.61,0.82,4.9,2.12,6.87,3.88c1.97,1.76,3.54,4.03,4.69,6.81
		c1.15,2.77,1.73,6.13,1.73,10.08v8.39c0,4-0.58,7.39-1.73,10.19c-1.15,2.8-2.7,5.07-4.65,6.81c-1.95,1.74-4.23,3.01-6.84,3.81
		c-2.61,0.8-5.37,1.2-8.29,1.2c-2.92,0-5.68-0.4-8.29-1.2c-2.61-0.8-4.89-2.07-6.84-3.81c-1.95-1.74-3.5-4.01-4.65-6.81
		c-1.15-2.8-1.73-6.19-1.73-10.19v-8.39c0-3.95,0.58-7.31,1.73-10.08c1.15-2.77,2.71-5.04,4.69-6.81c1.97-1.76,4.27-3.06,6.87-3.88
		C356.9,262.42,359.64,262.01,362.51,262.01z M362.51,306.16c1.74,0,3.36-0.22,4.87-0.67c1.5-0.45,2.82-1.23,3.95-2.36
		c1.13-1.13,2.01-2.66,2.64-4.58c0.63-1.93,0.95-4.35,0.95-7.26v-6.13c0-2.91-0.32-5.34-0.95-7.26c-0.64-1.93-1.52-3.46-2.64-4.58
		c-1.13-1.13-2.45-1.91-3.95-2.36c-1.51-0.45-3.13-0.67-4.87-0.67c-1.69,0-3.29,0.22-4.8,0.67c-1.5,0.45-2.82,1.23-3.95,2.36
		c-1.13,1.13-2.02,2.66-2.68,4.58c-0.66,1.93-0.99,4.35-0.99,7.26v6.13c0,2.92,0.33,5.34,0.99,7.26c0.66,1.93,1.55,3.46,2.68,4.58
		c1.13,1.13,2.44,1.92,3.95,2.36C359.22,305.93,360.82,306.16,362.51,306.16z"/>
</g>
</svg>
